<svg width="100" height="100" viewBox="0 0 64 64" xmlns="http://www.w3.org/2000/svg" fill="none" stroke="#000000" stroke-width="2" stroke-linecap="round" stroke-linejoin="round">
  <!-- Hand shape -->
  <path d="M20 44 L20 25 C20 20 22 16 25 16 C28 16 30 20 30 25 L30 44"/>
  <path d="M30 44 L30 20 C30 18 32 16 34 16 C36 16 38 18 38 20 L38 44"/>
  <path d="M38 44 L38 30 C38 28 40 26 42 26 C44 26 46 28 46 30 L46 44"/>
  <path d="M46 44 L46 34 C46 32 48 30 50 30 C52 30 54 32 54 34 L54 44"/>
  <!-- Palm -->
  <path d="M20 44 L54 44 C54 48 48 52 36 52 C24 52 20 48 20 44 Z"/>
</svg>
