<svg width="120" height="120" viewBox="0 0 64 64" xmlns="http://www.w3.org/2000/svg" fill="none" stroke="#4a7c28" stroke-width="2.5" stroke-linecap="round" stroke-linejoin="round">
  <!-- Fingers -->
  <path d="M18 38 L18 20 C18 15 21 12 24 12 C27 12 29 15 29 20 L29 38"/>
  <path d="M29 38 L29 18 C29 15 32 12 34 12 C37 12 40 15 40 18 L40 38"/>
  <path d="M40 38 L40 24 C40 22 43 19 45 19 C48 19 50 22 50 24 L50 38"/>
  <path d="M50 38 L50 28 C50 27 52 25 54 25 C56 25 58 27 58 28 L58 38"/>
  <!-- Palm -->
  <path d="M18 38 L58 38 C58 42 51 48 37 48 C23 48 18 42 18 38 Z"/>
  <!-- Wrist -->
  <path d="M37 48 L37 58" />
  <line x1="31" y1="58" x2="43" y2="58" stroke="#4a7c28" stroke-width="3" />
</svg>
